<svg width="256" height="256" viewBox="0 0 256 256" fill="none" xmlns="http://www.w3.org/2000/svg">
  <defs>
    <linearGradient id="supabaseGradient" x1="66" y1="32" x2="182" y2="224" gradientUnits="userSpaceOnUse">
      <stop offset="0" stop-color="#3ECF8E"/>
      <stop offset="1" stop-color="#2EB67D"/>
    </linearGradient>
  </defs>
  <path d="M166.8 30.8c-4.1-5.8-12.9-5-15.8 1.5l-72.6 163.5c-2.2 4.9 1.4 10.4 6.8 10.4h28.4c3.1 0 5.8-1.8 7.1-4.6L186.3 54c1.5-3.4 1.2-7.3-0.8-10.2L166.8 30.8z" fill="url(#supabaseGradient)"/>
  <path d="M169.7 58.2c2.7-6.1 10.7-7.7 15.6-3.2l6.2 5.7c3.4 3.1 4.4 8 2.5 12.2l-52.7 116.8c-1.3 2.8-4 4.6-7.1 4.6H105c-5.4 0-9-5.5-6.8-10.4L169.7 58.2z" fill="#3ECF8E" opacity="0.92"/>
</svg>
