<svg xmlns="http://www.w3.org/2000/svg" width="1200" height="720" viewBox="0 0 1200 720" fill="none">
  <rect width="1200" height="720" fill="#F3F4F6"/>
  <rect x="70" y="70" width="1060" height="580" rx="24" fill="#FFFFFF" stroke="#E5E7EB"/>
  <rect x="70" y="70" width="220" height="580" rx="24" fill="#F9FAFB"/>
  <rect x="110" y="140" width="140" height="14" rx="7" fill="#D1D5DB"/>
  <rect x="110" y="175" width="120" height="14" rx="7" fill="#D1D5DB"/>
  <rect x="340" y="120" width="260" height="38" rx="10" fill="#E5E7EB"/>
  <rect x="340" y="190" width="220" height="140" rx="14" fill="#ECFDF5"/>
  <rect x="580" y="190" width="220" height="140" rx="14" fill="#E5E7EB"/>
  <rect x="820" y="190" width="220" height="140" rx="14" fill="#E5E7EB"/>
  <rect x="340" y="360" width="700" height="220" rx="14" fill="#F9FAFB"/>
  <path d="M380 520L470 460L560 500L650 430L740 470L830 410L920 455" stroke="#059669" stroke-width="8" stroke-linecap="round" stroke-linejoin="round"/>
</svg>
